<svg width="482" height="556" viewBox="0 0 482 556" fill="none" xmlns="http://www.w3.org/2000/svg">
<path fill-rule="evenodd" clip-rule="evenodd" d="M481.51 139L240.755 0L0 139V417L240.755 556L481.51 417V139ZM458.372 152.5L241 27L23.6276 152.5V403.5L241 529L458.372 403.5V152.5Z" fill="white"/>
<path d="M254.082 261.41V66.6069L310.953 100.135V270.323L365.701 237.219V129.844L422.997 163.796V261.41L395.834 277.538L422.997 294.514V391.704L365.701 423.534V317.008L345.754 305.973L310.953 326.345V454.941L254.082 488.469V294.514L280.82 277.538L254.082 261.41Z" fill="white" stroke="black"/>
<path fill-rule="evenodd" clip-rule="evenodd" d="M58.4297 164.221L226.495 66.6069V260.137L200.182 275.416L226.495 294.939V488.893L58.4297 392.977V164.221ZM114.451 195.627V259.713L170.048 228.731V163.797L114.451 195.627ZM114.451 358.6V294.514L170.048 325.496V390.431L114.451 358.6Z" fill="white"/>
<path d="M226.495 66.6069H226.995V65.7383L226.244 66.1746L226.495 66.6069ZM58.4297 164.221L58.1786 163.789L57.9297 163.933V164.221H58.4297ZM226.495 260.137L226.747 260.57L226.995 260.425V260.137H226.495ZM200.182 275.416L199.931 274.983L199.274 275.365L199.884 275.817L200.182 275.416ZM226.495 294.939H226.995V294.687L226.793 294.537L226.495 294.939ZM226.495 488.893L226.248 489.328L226.995 489.754V488.893H226.495ZM58.4297 392.977H57.9297V393.267L58.1819 393.411L58.4297 392.977ZM114.451 259.713H113.951V260.564L114.694 260.15L114.451 259.713ZM114.451 195.627L114.202 195.193L113.951 195.337V195.627H114.451ZM170.048 228.731L170.292 229.168L170.548 229.025V228.731H170.048ZM170.048 163.797H170.548V162.934L169.8 163.363L170.048 163.797ZM114.451 294.514L114.694 294.078L113.951 293.663V294.514H114.451ZM114.451 358.6H113.951V358.89L114.202 359.034L114.451 358.6ZM170.048 325.496H170.548V325.202L170.292 325.059L170.048 325.496ZM170.048 390.431L169.8 390.865L170.548 391.293V390.431H170.048ZM226.244 66.1746L58.1786 163.789L58.6808 164.653L226.747 67.0393L226.244 66.1746ZM226.995 260.137V66.6069H225.995V260.137H226.995ZM200.433 275.848L226.747 260.57L226.244 259.705L199.931 274.983L200.433 275.848ZM226.793 294.537L200.48 275.014L199.884 275.817L226.198 295.34L226.793 294.537ZM226.995 488.893V294.939H225.995V488.893H226.995ZM58.1819 393.411L226.248 489.328L226.743 488.459L58.6775 392.543L58.1819 393.411ZM57.9297 164.221V392.977H58.9297V164.221H57.9297ZM114.951 259.713V195.627H113.951V259.713H114.951ZM169.805 228.294L114.207 259.276L114.694 260.15L170.292 229.168L169.805 228.294ZM169.548 163.797V228.731H170.548V163.797H169.548ZM114.699 196.061L170.297 164.23L169.8 163.363L114.202 195.193L114.699 196.061ZM113.951 294.514V358.6H114.951V294.514H113.951ZM170.292 325.059L114.694 294.078L114.207 294.951L169.805 325.933L170.292 325.059ZM170.548 390.431V325.496H169.548V390.431H170.548ZM114.202 359.034L169.8 390.865L170.297 389.997L114.699 358.166L114.202 359.034Z" fill="black"/>
</svg>
